<?xml version="1.0" encoding="UTF-8"?>
<svg xmlns="http://www.w3.org/2000/svg" xmlns:xlink="http://www.w3.org/1999/xlink" viewBox="0 0 50 50" width="50px" height="50px">
<g id="surface161709257">
<rect x="0" y="0" width="50" height="50" style="fill:rgb(20%,20%,20%);fill-opacity:1;stroke:none;"/>
<path style=" stroke:none;fill-rule:nonzero;fill:rgb(100%,100%,100%);fill-opacity:1;" d="M 8 3.011719 C 6.324219 3.011719 4.851562 3.457031 3.765625 4.308594 C 2.675781 5.164062 2.011719 6.464844 2.011719 7.898438 C 2.011719 10.773438 4.605469 12.988281 8 12.988281 C 9.742188 12.988281 11.234375 12.476562 12.304688 11.5625 C 13.375 10.648438 13.988281 9.324219 13.988281 7.898438 C 13.988281 7.886719 13.988281 7.871094 13.984375 7.855469 C 13.863281 5.113281 11.375 3.011719 8 3.011719 Z M 8 4.988281 C 10.613281 4.988281 11.917969 6.277344 12.007812 7.921875 C 12.003906 8.789062 11.667969 9.507812 11.019531 10.0625 C 10.363281 10.621094 9.359375 11.011719 8 11.011719 C 5.394531 11.011719 3.988281 9.628906 3.988281 7.902344 C 3.988281 7.035156 4.324219 6.386719 4.984375 5.867188 C 5.648438 5.34375 6.675781 4.988281 8 4.988281 Z M 3 15 C 2.449219 15 2 15.449219 2 16 L 2 45 C 2 45.550781 2.449219 46 3 46 L 13 46 C 13.550781 46 14 45.550781 14 45 L 14 16 C 14 15.449219 13.550781 15 13 15 Z M 18 15 C 17.449219 15 17 15.449219 17 16 L 17 45.097656 C 17 45.652344 17.449219 46.097656 18 46.097656 L 28 46.097656 C 28.550781 46.097656 29 45.652344 29 45.097656 L 29 28.5 C 29 26.535156 30.535156 25 32.5 25 C 34.464844 25 36 26.535156 36 28.5 L 36 45 C 36 45.550781 36.449219 46 37 46 L 47 46 C 47.550781 46 48 45.550781 48 45 L 48 28 C 48 23.855469 46.78125 20.585938 44.734375 18.359375 C 42.691406 16.136719 39.84375 15 36.800781 15 C 32.890625 15 30.523438 16.421875 29 17.585938 L 29 16 C 29 15.449219 28.550781 15 28 15 Z M 4 17 L 12 17 L 12 44 L 4 44 Z M 19 17 L 27 17 L 27 19.597656 C 27 20.011719 27.253906 20.382812 27.636719 20.53125 C 28.019531 20.679688 28.457031 20.578125 28.734375 20.273438 C 28.734375 20.273438 31.738281 17 36.800781 17 C 39.355469 17 41.609375 17.914062 43.265625 19.714844 C 44.917969 21.515625 46 24.242188 46 28 L 46 44 L 38 44 L 38 28.5 C 38 28.359375 37.972656 28.21875 37.914062 28.089844 C 37.695312 25.257812 35.386719 23 32.5 23 C 29.464844 23 27 25.464844 27 28.5 L 27 44.097656 L 19 44.097656 Z M 19 17 "/>
</g>
</svg>
